<svg width="140" height="40" viewBox="0 0 140 40" fill="none" xmlns="http://www.w3.org/2000/svg">
<path d="M77.6445 29L76.4023 24.9219H70.1562L68.9141 29H65L71.0469 11.7969H75.4883L81.5586 29H77.6445ZM75.5352 21.875L74.293 17.8906C74.2148 17.625 74.1094 17.2852 73.9766 16.8711C73.8516 16.4492 73.7227 16.0234 73.5898 15.5938C73.4648 15.1562 73.3633 14.7773 73.2852 14.457C73.207 14.7773 73.0977 15.1758 72.957 15.6523C72.8242 16.1211 72.6953 16.5664 72.5703 16.9883C72.4453 17.4102 72.3555 17.7109 72.3008 17.8906L71.0703 21.875H75.5352ZM88.2388 11.8672C89.7934 11.8672 91.0747 12.0547 92.0825 12.4297C93.0981 12.8047 93.852 13.3711 94.3442 14.1289C94.8364 14.8867 95.0825 15.8438 95.0825 17C95.0825 17.7812 94.9341 18.4648 94.6372 19.0508C94.3403 19.6367 93.9497 20.1328 93.4653 20.5391C92.9809 20.9453 92.4575 21.2773 91.895 21.5352L96.9341 29H92.9028L88.813 22.4258H86.8794V29H83.2466V11.8672H88.2388ZM87.9809 14.8438H86.8794V19.4727H88.0513C89.2544 19.4727 90.1138 19.2734 90.6294 18.875C91.1528 18.4688 91.4145 17.875 91.4145 17.0938C91.4145 16.2812 91.1333 15.7031 90.5708 15.3594C90.0161 15.0156 89.1528 14.8438 87.9809 14.8438ZM108.724 24.2422C108.724 25.2578 108.478 26.1406 107.985 26.8906C107.493 27.6406 106.774 28.2188 105.829 28.625C104.892 29.0312 103.751 29.2344 102.407 29.2344C101.813 29.2344 101.231 29.1953 100.661 29.1172C100.099 29.0391 99.5556 28.9258 99.0322 28.7773C98.5166 28.6211 98.0244 28.4297 97.5556 28.2031V24.8281C98.3681 25.1875 99.2119 25.5117 100.087 25.8008C100.962 26.0898 101.829 26.2344 102.688 26.2344C103.282 26.2344 103.759 26.1562 104.118 26C104.485 25.8438 104.751 25.6289 104.915 25.3555C105.079 25.082 105.161 24.7695 105.161 24.418C105.161 23.9883 105.017 23.6211 104.728 23.3164C104.438 23.0117 104.04 22.7266 103.532 22.4609C103.032 22.1953 102.466 21.9102 101.833 21.6055C101.435 21.418 101.001 21.1914 100.532 20.9258C100.063 20.6523 99.6181 20.3203 99.1963 19.9297C98.7744 19.5391 98.4267 19.0664 98.1533 18.5117C97.8877 17.9492 97.7548 17.2773 97.7548 16.4961C97.7548 15.4727 97.9892 14.5977 98.458 13.8711C98.9267 13.1445 99.5947 12.5898 100.462 12.207C101.337 11.8164 102.368 11.6211 103.556 11.6211C104.446 11.6211 105.294 11.7266 106.099 11.9375C106.911 12.1406 107.759 12.4375 108.642 12.8281L107.47 15.6523C106.681 15.332 105.974 15.0859 105.349 14.9141C104.724 14.7344 104.087 14.6445 103.438 14.6445C102.985 14.6445 102.599 14.7188 102.278 14.8672C101.958 15.0078 101.716 15.2109 101.552 15.4766C101.388 15.7344 101.306 16.0352 101.306 16.3789C101.306 16.7852 101.423 17.1289 101.657 17.4102C101.899 17.6836 102.259 17.9492 102.735 18.207C103.22 18.4648 103.821 18.7656 104.54 19.1094C105.415 19.5234 106.161 19.957 106.778 20.4102C107.403 20.8555 107.884 21.3828 108.22 21.9922C108.556 22.5938 108.724 23.3438 108.724 24.2422ZM111.349 29V11.8672H114.982V29H111.349ZM126.068 29L121.943 15.5586H121.838C121.853 15.8789 121.877 16.3633 121.908 17.0117C121.947 17.6523 121.982 18.3359 122.014 19.0625C122.045 19.7891 122.06 20.4453 122.06 21.0312V29H118.814V11.8672H123.76L127.814 24.9688H127.885L132.185 11.8672H137.131V29H133.744V20.8906C133.744 20.3516 133.752 19.7305 133.768 19.0273C133.791 18.3242 133.818 17.6562 133.85 17.0234C133.881 16.3828 133.904 15.9023 133.92 15.582H133.814L129.396 29H126.068Z" fill="#0DD70D"/>
<path d="M35.0128 29.3689C32.5193 33.8561 27.4423 35.991 22.3088 35.991H1.71191C23.1534 33.3108 38.0858 22.5901 40.0002 7.65765C41.9146 22.5901 56.847 33.3108 78.2885 35.991H57.6916C52.5581 35.991 47.4811 33.8561 44.9876 29.3689C42.2888 24.5122 40.5693 19.0166 40.0002 13.018C39.4311 19.0166 37.7116 24.5122 35.0128 29.3689Z" fill="#0DD70D"/>
<path d="M23.2337 27.7829C22.0309 28.4601 20.7657 29.0962 19.4409 29.6886C18.6884 27.0892 18.4115 24.3619 18.6323 21.6451C18.9245 18.051 20.0787 14.586 21.9928 11.5571C23.907 8.5283 26.5219 6.02898 29.6059 4.28065C32.6899 2.53233 36.148 1.58893 39.6737 1.53404C43.1993 1.47913 46.6838 2.31442 49.8184 3.96591C52.9531 5.61739 55.6412 8.03407 57.6445 11.0019C59.6479 13.9698 60.9047 17.3972 61.3038 20.9806C61.6301 23.9115 61.3743 26.8729 60.5592 29.6886C59.2344 29.0962 57.9692 28.46 56.7664 27.7829C57.2735 25.7243 57.4156 23.5828 57.1794 21.461C56.8576 18.5714 55.844 15.8075 54.2286 13.4143C52.613 11.021 50.4454 9.07214 47.9176 7.7404C45.3898 6.40863 42.5799 5.73507 39.7368 5.77933C36.8937 5.8236 34.1052 6.58436 31.6183 7.99417C29.1313 9.40403 27.0226 11.4194 25.479 13.8619C23.9355 16.3044 23.0047 19.0985 22.7691 21.9969C22.6108 23.945 22.7698 25.8998 23.2337 27.7829Z" fill="#0DD70D"/>
</svg>
